<svg width="600" height="629" viewBox="164 160 600 629" fill="none" xmlns="http://www.w3.org/2000/svg" role="img" aria-label="EZLogs">
  <path d="M164 311.523L466.034 160L764 312.58V639.592L466.034 789L164 636.42V311.523Z" fill="white"/>
  <path d="M399 227.2C413 220.4 433.3 210.7 444 205.5C454.7 200.4 463.6 196.1 463.8 196.1C464 196 473.4 200.5 484.8 206.1C496.2 211.6 513.1 219.8 522.4 224.3L539.3 232.4L579.2 252.1L586.3 255.4C590.3 257.2 610.4 266.9 631 277C651.6 287 682 301.7 698.5 309.7C715 317.7 728.8 324.6 729.3 324.9C730.1 325.7 601 390 487.2 445.5L464.9 456.4L435.9 441.9L406.9 427.5L375.1 412L360.8 405.1C338.1 394.2 309.4 380.2 254 353C225.7 339.1 201.5 327.2 200.3 326.6C199 326 198 325.2 198 324.9C198 324.3 212.5 317.2 291 279.2C352.6 249.4 367.6 242.2 399 227.2Z" fill="#01E63E"/>
  <path d="M191 484.3V620.7L212.8 631.3C248.9 648.9 286.3 667.2 353.5 700C450.8 747.6 453 748.6 453.5 748.1C453.8 747.9 454 733.6 454 716.5C454 692.7 453.7 685 452.8 684.2C451.5 683.2 400.8 658.8 367 643C345.2 632.8 277.1 600.1 267 595L259 591V570C259 558.4 259.2 549 259.4 549C259.6 549 265.7 551.9 273.1 555.4C280.5 558.9 295.3 565.9 306 571C316.7 576.1 340.1 587.2 358 595.8C375.9 604.3 396.1 613.9 403 617.1L415.5 622.8L415.8 593.2C415.9 577 415.7 563.3 415.3 562.9C414.8 562.4 397.9 554 377.5 544.2C357.2 534.3 322.2 517.2 299.8 506.2L259 486.2V465.1V444.1L270.3 449.4C276.4 452.4 290.1 458.9 300.5 464C311 469.1 329.2 477.8 341 483.5C352.8 489.2 382.7 503.5 407.5 515.4C432.2 527.3 452.8 537 453.2 537C453.7 537 453.9 523 453.8 505.9L453.5 474.8L404.5 451.1C377.6 438 334.8 417.2 309.5 404.8C228.7 365.2 193.2 348 192.1 348C191.3 348 191 386.1 191 484.3Z" fill="black"/>
  <path d="M476.962 746.549C477.774 746.543 516.68 727.641 628.062 672.95C645.362 664.45 676.862 649.05 698.062 638.75L736.562 619.85L736.861 569.75C736.961 542.15 736.861 519.549 736.661 519.549C735.558 519.551 719.655 527.253 671.661 550.95C643.179 565.041 619.691 576.535 619.462 576.549C619.062 576.549 627.962 564.649 649.062 537.049C653.262 531.549 667.262 513.549 680.062 497.049C727.061 436.75 729.861 432.849 734.361 420.549C736.261 415.449 736.461 412.449 736.861 382.25C737.061 364.25 736.861 349.549 736.361 349.549C735.957 349.551 722.358 356.151 706.161 364.049C690.061 372.049 676.662 378.549 676.562 378.549C676.461 378.55 651.162 390.95 620.462 406.15C558.062 436.95 510.461 460.35 489.861 470.25L476.062 476.85V504.75C476.062 520.036 476.261 532.527 476.361 532.549C476.561 532.549 510.261 515.849 551.361 495.549C592.361 475.149 626.161 458.549 626.562 458.549C627.162 458.549 622.262 465.15 590.562 506.45C580.662 519.35 568.062 535.75 562.562 542.95C552.362 556.35 532.262 582.55 505.462 617.45C497.162 628.25 487.162 641.449 483.262 646.75L476.062 656.45V701.45C476.062 728.35 476.462 746.549 476.962 746.549ZM670.062 620.25L670.161 615.049L682.161 609.65C695.861 603.45 697.661 602.15 698.661 598.35C699.661 593.95 697.261 594.049 686.762 599.049C676.362 603.949 674.562 604.35 671.262 601.95C669.362 600.65 669.062 599.55 669.062 593.65C669.062 587.55 669.461 586.25 672.361 581.95C675.261 577.45 676.762 576.45 691.062 569.35C699.561 565.15 707.16 561.651 707.861 561.65C708.661 561.55 709.062 563.05 709.062 566.15V570.65L696.762 576.549C689.962 579.749 683.663 583.049 682.762 584.049C680.662 586.049 680.462 590.549 682.462 590.549C683.263 590.549 688.362 588.549 693.861 586.049C699.361 583.549 704.761 581.55 705.861 581.549C708.861 581.549 711.061 585.35 711.062 590.549C711.062 603.349 706.562 608.25 685.262 618.25L670.062 625.45V620.25ZM639.762 640.15C625.962 646.95 621.561 647.85 618.661 644.65C617.161 642.95 616.962 640.85 617.262 627.35C617.562 612.15 617.662 611.75 620.462 607.75C622.062 605.45 624.962 602.549 626.962 601.25C630.963 598.749 658.159 585.651 659.361 585.549C659.761 585.549 660.061 587.65 659.861 590.25L659.562 595.049L646.161 601.65C638.762 605.25 631.862 609.249 630.861 610.549C629.361 612.349 629.062 614.55 629.062 623.15C629.062 633.15 629.162 633.549 631.262 633.549C633.962 633.549 648.062 626.65 648.762 624.95C648.962 624.25 649.061 622.35 648.861 620.65L648.562 617.65L644.361 619.549L640.062 621.45V617.049C640.062 614.549 640.462 612.549 641.062 612.549C641.562 612.549 646.161 610.549 651.161 608.049C656.258 605.551 660.456 603.552 660.661 603.549C661.461 603.549 660.961 621.65 660.161 623.85C657.961 629.55 652.661 633.75 639.762 640.15ZM569.762 672.549C563.862 672.549 563.062 670.349 563.062 655.049C563.162 634.95 565.262 631.649 585.062 621.549C598.961 614.349 603.062 613.35 606.262 616.25C607.862 617.65 608.062 619.55 608.062 632.75C608.062 649.75 607.161 652.75 600.161 658.65C594.861 663.25 574.362 672.549 569.762 672.549ZM576.361 660.15C578.362 660.85 592.66 654.05 594.461 651.45C596.561 648.35 596.861 627.552 594.762 627.549C594.062 627.549 589.761 629.35 585.361 631.45C580.861 633.65 576.761 636.35 576.161 637.45C574.561 640.45 574.761 659.45 576.361 660.15ZM521.062 653.85L526.861 650.75L532.562 647.65L533.062 665.049L533.562 682.45L543.962 677.549C549.662 674.749 554.762 672.549 555.262 672.549C555.762 672.55 556.061 674.65 555.861 677.15L555.562 681.85L538.361 690.15L521.062 698.45V653.85Z" fill="black"/>
</svg>
